# xmcd
#
# Track frame offsets:
#	150
#	19956
#	40220
#	61587
#	82459
#	98946
#	115079
#	133237
#	148182
#	166993
#	180596
#	199297
#	219307
#	237669
#
# Disc length: 3452 seconds
#
# Revision: 0
# Processed by: cddbd v1.5.1PL2 Copyright (c) Steve Scherf et al.
# Submitted via: EasyCDDAExtractor 8.1.2.3
#
DISCID=d20d7a0e
DTITLE=Nysay - L'asphalte
DYEAR=2005
DGENRE=Rap
TTITLE0=chaud
TTITLE1=on vit l'epoque
TTITLE2=le biz a change
TTITLE3=jeunesse en péril
TTITLE4=le ghetto brule
TTITLE5=on arrive
TTITLE6=la course à l'argent
TTITLE7=soldat
TTITLE8=que s'passe t-il
TTITLE9=les kings
TTITLE10=en france
TTITLE11=so come, come now
TTITLE12=nysay-pow-obc
TTITLE13=nysay and movez'lang
EXTD=
EXTT0=
EXTT1=
EXTT2=
EXTT3=
EXTT4=
EXTT5=
EXTT6=
EXTT7=
EXTT8=
EXTT9=
EXTT10=
EXTT11=
EXTT12=
EXTT13=
PLAYORDER=
